<svg xmlns="http://www.w3.org/2000/svg" viewBox="0 0 500 500">
  <g fill="#D4A017">
    <path d="M250 100c-83 0-150 67-150 150s67 150 150 150 150-67 150-150S333 100 250 100zm0 270c-66.2 0-120-53.8-120-120s53.8-120 120-120 120 53.8 120 120-53.8 120-120 120z"/>
    <path d="M323 190c-10-15-25-25-42-28-17-3-35 2-49 14-14 12-22 30-21 48 1 18 11 35 27 45 16 10 35 12 53 5 18-7 31-22 36-40 5-18 2-38-4-44zm-73 64c-12 0-22-10-22-22s10-22 22-22 22 10 22 22-10 22-22 22z"/>
    <path d="M250 80c-94.4 0-171 76.6-171 171s76.6 171 171 171 171-76.6 171-171S344.4 80 250 80zm0 312c-77.9 0-141-63.1-141-141s63.1-141 141-141 141 63.1 141 141-63.1 141-141 141z"/>
    <path d="M250 60c-105.9 0-192 86.1-192 192s86.1 192 192 192 192-86.1 192-192S355.9 60 250 60zm0 354c-89.5 0-162-72.5-162-162S160.5 90 250 90s162 72.5 162 162-72.5 162-162 162z"/>
    <path d="M380 200c-5-10-15-17-26-20-11-3-23 0-32 7-9 7-15 18-15 30 0 12 5 24 15 32 10 8 23 11 35 8 12-3 22-11 28-22 6-11 6-24 0-35h-5zm-40 35c-6 0-10-4-10-10s4-10 10-10 10 4 10 10-4 10-10 10z"/>
    <path d="M300 230c-3-6-8-10-14-12-6-2-13-1-19 3-6 4-10 10-11 17-1 7 1 15 6 20 5 5 12 8 19 7 7-1 14-5 17-11 3-6 4-13 2-19v-5z"/>
  </g>
  <text x="100" y="400" font-family="Arial" font-size="60" font-weight="bold" fill="#D4A017">DropGarden</text>
</svg>
